<?xml version="1.0" encoding="utf-8"?><svg viewBox="0 0 132 100" xmlns="http://www.w3.org/2000/svg" xmlns:xlink="http://www.w3.org/1999/xlink"><style>:root>svg{display:none}:root>svg:target{display:block}</style><svg fill="none" viewBox="0 0 6 6" id="circle" xmlns="http://www.w3.org/2000/svg"><circle cx="3" cy="3" r="3" fill="#FFEBE7"/></svg><svg viewBox="0 0 24 24" id="facebook" xmlns="http://www.w3.org/2000/svg"><path d="M14 13.5h2.5l1-4H14v-2c0-1.03 0-2 2-2h1.5V2.14c-.326-.043-1.557-.14-2.857-.14C11.928 2 10 3.657 10 6.7v2.8H7v4h3V22h4v-8.5z"/></svg><svg viewBox="0 0 24 24" id="instagram" xmlns="http://www.w3.org/2000/svg"><path d="M13.028 2.001a78.82 78.82 0 012.189.022l.194.007c.224.008.445.018.712.03 1.064.05 1.79.218 2.427.465.66.254 1.216.598 1.772 1.154a4.908 4.908 0 011.153 1.771c.247.637.415 1.364.465 2.428.012.266.022.488.03.712l.006.194a79 79 0 01.023 2.188l.001.746v1.31a78.836 78.836 0 01-.023 2.189l-.006.194c-.008.224-.018.445-.03.712-.05 1.064-.22 1.79-.466 2.427a4.884 4.884 0 01-1.153 1.772 4.915 4.915 0 01-1.772 1.153c-.637.247-1.363.415-2.427.465-.267.012-.488.022-.712.03l-.194.006a79 79 0 01-2.189.023l-.746.001h-1.309a78.836 78.836 0 01-2.189-.023l-.194-.006a60.64 60.64 0 01-.712-.03c-1.064-.05-1.79-.22-2.428-.466a4.89 4.89 0 01-1.771-1.153 4.904 4.904 0 01-1.154-1.772c-.247-.637-.415-1.363-.465-2.427a74.367 74.367 0 01-.03-.712l-.005-.194A79.053 79.053 0 012 13.028v-2.056a78.82 78.82 0 01.022-2.188l.007-.194c.008-.224.018-.446.03-.712.05-1.065.218-1.79.465-2.428A4.88 4.88 0 013.68 3.68a4.897 4.897 0 011.77-1.155c.638-.247 1.363-.415 2.428-.465l.712-.03.194-.005A79.053 79.053 0 0110.972 2h2.056zm-1.028 5A5 5 0 1012 17a5 5 0 000-10zm0 2A3 3 0 1112.001 15a3 3 0 010-6zm5.25-3.5a1.25 1.25 0 000 2.498 1.25 1.25 0 000-2.5z"/></svg><svg viewBox="0 0 24 24" id="linkedin" xmlns="http://www.w3.org/2000/svg"><path d="M6.94 5a2 2 0 11-4-.002 2 2 0 014 .002zM7 8.48H3V21h4V8.48zm6.32 0H9.34V21h3.94v-6.57c0-3.66 4.77-4 4.77 0V21H22v-7.93c0-6.17-7.06-5.94-8.72-2.91l.04-1.68z"/></svg><svg fill="none" viewBox="0 0 132 32" id="logo" xmlns="http://www.w3.org/2000/svg"><path d="M56.419 25.172c-1.661 0-3.086-.376-4.272-1.128a6.024 6.024 0 01-2.467-3.092l2.034-1.128c.696 2.077 2.28 3.115 4.756 3.115 1.22 0 2.153-.237 2.797-.711.644-.49.967-1.137.967-1.938 0-.818-.323-1.431-.967-1.84-.644-.41-1.72-.843-3.23-1.3a74.222 74.222 0 01-1.703-.54c-.39-.148-.882-.36-1.475-.638-.577-.295-1.009-.59-1.297-.883-.288-.311-.551-.712-.789-1.203-.22-.49-.33-1.046-.33-1.668 0-1.489.542-2.666 1.627-3.533 1.085-.883 2.408-1.325 3.968-1.325 1.407 0 2.627.344 3.662 1.03a6.447 6.447 0 012.365 2.724l-1.984 1.104c-.763-1.767-2.11-2.65-4.044-2.65-.966 0-1.746.23-2.34.687-.592.458-.89 1.08-.89 1.865 0 .752.28 1.325.84 1.717.56.393 1.526.802 2.9 1.227.49.147.838.254 1.042.319.203.065.517.18.94.343.441.164.764.295.967.393.203.098.475.237.814.417.356.18.619.352.788.515.17.164.365.368.585.614.237.229.407.466.509.711.101.245.186.532.254.859.085.31.127.646.127 1.006 0 1.505-.568 2.707-1.704 3.606-1.136.883-2.619 1.325-4.45 1.325zm15.058-12.905c1.492 0 2.687.458 3.586 1.374.898.9 1.347 2.126 1.347 3.68v7.532h-2.212v-7.41c0-.997-.28-1.766-.84-2.306-.559-.556-1.33-.834-2.313-.834-1.102 0-1.992.336-2.67 1.006-.679.655-1.018 1.669-1.018 3.043v6.501h-2.212V12.586h2.212v1.766c.899-1.39 2.272-2.085 4.12-2.085zm9.141-1.914c-.424 0-.78-.139-1.068-.417a1.347 1.347 0 01-.432-1.006c0-.392.144-.728.432-1.006a1.435 1.435 0 011.068-.441c.407 0 .755.147 1.043.441.288.278.432.614.432 1.006 0 .393-.144.728-.432 1.006a1.447 1.447 0 01-1.043.417zm-1.119 14.5V12.586h2.213v12.267h-2.213zm16.345 0h-2.746l-5.799-5.815v5.815h-2.212V7.68h2.212v10.33l5.493-5.423h2.849l-6.078 5.937 6.281 6.33zm9.076-12.586c1.78 0 3.298.63 4.552 1.89 1.255 1.242 1.882 2.763 1.882 4.563 0 1.799-.627 3.328-1.882 4.588-1.254 1.243-2.772 1.864-4.552 1.864-2.102 0-3.704-.81-4.806-2.429v7.017h-2.213V12.586h2.213v2.11c1.102-1.62 2.704-2.429 4.806-2.429zm-.279 10.844c1.271 0 2.339-.417 3.204-1.251.864-.85 1.297-1.897 1.297-3.14s-.433-2.282-1.297-3.116c-.865-.85-1.933-1.276-3.204-1.276-1.289 0-2.366.425-3.23 1.276-.865.834-1.297 1.873-1.297 3.116s.432 2.29 1.297 3.14c.864.834 1.941 1.251 3.23 1.251zm10.472-12.758c-.424 0-.78-.139-1.068-.417a1.348 1.348 0 01-.432-1.006c0-.392.144-.728.432-1.006a1.435 1.435 0 011.068-.441c.407 0 .755.147 1.043.441.288.278.432.614.432 1.006 0 .393-.144.728-.432 1.006a1.448 1.448 0 01-1.043.417zm-1.119 14.5V12.586h2.213v12.267h-2.213zm11.564.319c-1.916 0-3.509-.613-4.781-1.84-1.271-1.243-1.907-2.78-1.907-4.612 0-1.832.636-3.362 1.907-4.588 1.272-1.243 2.865-1.865 4.781-1.865 1.255 0 2.382.294 3.382.883 1.001.573 1.747 1.35 2.238 2.331l-1.856 1.03c-.322-.654-.822-1.177-1.501-1.57-.661-.392-1.415-.589-2.263-.589-1.271 0-2.34.418-3.204 1.252-.848.834-1.272 1.873-1.272 3.116 0 1.226.424 2.257 1.272 3.09.864.835 1.933 1.252 3.204 1.252.848 0 1.611-.188 2.289-.564a4.009 4.009 0 001.551-1.57l1.882 1.055c-.543.965-1.322 1.742-2.34 2.33-1.017.573-2.144.86-3.382.86z" fill="#fff"/><ellipse cx="17.04" cy="16" rx="16.32" ry="16" fill="#F0998D"/><path d="M14.249 6.261v3.215s-2.52.19-2.48 2.458a2.326 2.326 0 00.557 1.634c.39.455.94.75 1.542.825h6.104s5.421.078 5.343 6.052c-.066 4.938-5.726 5.294-5.726 5.294v-3.215s2.4-.192 2.48-2.269c.037-.338 0-.68-.109-1.003a2.383 2.383 0 00-.52-.87 2.441 2.441 0 00-.84-.583 2.484 2.484 0 00-1.011-.191h-5.912s-5.199-.466-5.152-5.674c.046-5.108 4.78-5.663 5.724-5.673z" fill="#fff"/></svg><svg fill="none" viewBox="0 0 32 32" id="logo-footer" xmlns="http://www.w3.org/2000/svg"><circle cx="16" cy="16" r="16" fill="#fff"/><path d="M13.264 6.26v3.216s-2.47.19-2.431 2.458a2.356 2.356 0 002.057 2.458h5.985s5.315.079 5.238 6.052c-.065 4.939-5.613 5.295-5.613 5.295v-3.215s2.353-.192 2.431-2.269a2.393 2.393 0 00-2.431-2.647h-5.797s-5.096-.467-5.05-5.674c.045-5.108 4.687-5.663 5.611-5.673z" fill="#FF774B"/></svg><svg fill="none" viewBox="0 0 48 48" id="mous" xmlns="http://www.w3.org/2000/svg"><path fill-rule="evenodd" clip-rule="evenodd" d="M43.623 37.821A23.89 23.89 0 0048 24C48 10.745 37.255 0 24 0S0 10.745 0 24s10.745 24 24 24c5.659 0 10.86-1.959 14.963-5.235l-10.42-10.42L25.57 44 13 12l32 12.57-11.655 2.973L43.623 37.82z" fill="#F0998D"/></svg><svg fill="none" viewBox="0 0 48 48" id="phone" xmlns="http://www.w3.org/2000/svg"><path fill-rule="evenodd" clip-rule="evenodd" d="M45.08 35.484A23.893 23.893 0 0048 24C48 10.745 37.255 0 24 0S0 10.745 0 24s10.745 24 24 24c4.245 0 8.232-1.102 11.691-3.035-3.16-.271-6.552-2.201-10.097-5.747l-9.814-9.813c-3.03-3.03-4.889-5.964-5.527-8.722-.765-3.309.205-6.345 2.884-9.023l1.694-1.693a3.276 3.276 0 012.329-.964c.534 0 1.066.132 1.539.382 2.532 1.34 5.28 5.994 5.395 6.191.49.86.643 1.74.436 2.49a2.219 2.219 0 01-1.032 1.332c-.814.681-1.766 1.526-1.916 1.732-1.068 1.577-.943 2.834.422 4.199l7.666 7.666c1.373 1.374 2.615 1.496 4.2.42.205-.148 1.05-1.1 1.73-1.913.43-.724 1.141-1.122 2.01-1.122.584 0 1.208.18 1.806.52.183.108 3.913 2.31 5.663 4.584z" fill="#F0998D"/></svg><svg fill="none" viewBox="0 0 100 100" id="play" xmlns="http://www.w3.org/2000/svg"><g filter="url(#ifilter0_b_1_9660)"><circle cx="50" cy="50" r="50" fill="#fff" fill-opacity=".24"/></g><circle cx="50" cy="50" r="40" fill="#F0998D"/><path d="M65 48.768c1.333.77 1.333 2.694 0 3.464L44.75 63.923c-1.333.77-3-.192-3-1.732V38.81c0-1.54 1.667-2.502 3-1.732L65 48.767z" fill="#fff"/><defs><filter id="ifilter0_b_1_9660" x="-15" y="-15" width="130" height="130" filterUnits="userSpaceOnUse" color-interpolation-filters="sRGB"><feFlood flood-opacity="0" result="BackgroundImageFix"/><feGaussianBlur in="BackgroundImageFix" stdDeviation="7.5"/><feComposite in2="SourceAlpha" operator="in" result="effect1_backgroundBlur_1_9660"/><feBlend in="SourceGraphic" in2="effect1_backgroundBlur_1_9660" result="shape"/></filter></defs></svg><svg fill="none" viewBox="0 0 17 16" id="select-icon" xmlns="http://www.w3.org/2000/svg"><path d="M3.26 5.313a.5.5 0 01.65-.048l.057.048L8.28 9.626l4.313-4.313a.5.5 0 01.65-.048l.057.048a.5.5 0 01.048.651l-.048.056-4.667 4.667a.5.5 0 01-.65.048l-.057-.048L3.26 6.02a.5.5 0 010-.707z" fill="#000"/></svg><svg fill="none" viewBox="0 0 50 50" id="slider-arrow-left" xmlns="http://www.w3.org/2000/svg"><circle cx="25" cy="25.002" r="24" transform="rotate(-180 25 25.002)"/><path d="M32 25.002H18m2.586 4L17 25.416m4-4l-3.586 3.586"/></svg><svg fill="none" viewBox="0 0 50 50" id="slider-arrow-right" xmlns="http://www.w3.org/2000/svg"><circle cx="25" cy="25.002" r="24"/><path d="M18 25.002h14m-2.586-4L33 24.588m-4 4l3.586-3.586"/></svg><svg fill="none" viewBox="0 0 104 23" id="trustpilot" xmlns="http://www.w3.org/2000/svg"><path d="M.55 8.153h15.14V2.612L.55 8.153z" fill="#FF9D28"/><path d="M15.691 2.612V22.2L22.851 0l-7.16 2.612z" fill="#68C5ED"/><path d="M15.691 8.153h-5.72l5.72 14.03V8.153z" fill="#044D80"/><path d="M.55 8.154l10.893 3.6-1.473-3.6H.55z" fill="#E54747"/><path d="M35.252 17.027a2.518 2.518 0 01-.41.301 4.42 4.42 0 01-.754.369 6.398 6.398 0 01-1.148.318c-.445.083-.96.134-1.541.134-1.114 0-2.09-.185-2.912-.52-.823-.351-1.49-.837-2.022-1.473a5.93 5.93 0 01-1.164-2.226c-.257-.854-.377-1.809-.377-2.83 0-1.021.137-1.976.41-2.846.275-.87.669-1.624 1.217-2.26a5.438 5.438 0 012.021-1.49c.805-.352 1.765-.536 2.86-.536.532 0 1.029.05 1.457.134.428.1.822.2 1.147.335.326.133.6.267.805.401.223.134.377.268.48.352.12.1.24.234.326.385.085.15.136.318.136.486 0 .267-.102.535-.308.803a5.727 5.727 0 01-.685.754 8.388 8.388 0 00-.565-.503 4.166 4.166 0 00-.703-.452 4.086 4.086 0 00-.873-.318 4.355 4.355 0 00-1.096-.134c-.703 0-1.302.134-1.782.419-.48.284-.856.636-1.147 1.088a4.48 4.48 0 00-.617 1.524A8.509 8.509 0 0027.819 11c0 .636.068 1.239.188 1.825a4.17 4.17 0 00.65 1.54c.31.452.703.803 1.2 1.071.497.268 1.096.402 1.833.402.394 0 .736-.05 1.062-.134.325-.1.616-.217.856-.351.257-.134.463-.285.651-.419.188-.15.343-.285.462-.385.086.1.172.218.292.352.12.133.222.284.308.418.103.15.171.301.257.452a.93.93 0 010 .854 2.75 2.75 0 01-.325.402zm10.689-1.557c0 1.071.154 1.858.48 2.344-.258.1-.48.167-.703.2a4.52 4.52 0 01-.685.068c-.497 0-.873-.1-1.13-.285-.257-.184-.429-.469-.497-.82-.309.318-.703.586-1.216.803-.497.218-1.114.318-1.833.318a4.37 4.37 0 01-1.13-.15c-.377-.1-.72-.268-1.028-.503-.309-.234-.548-.535-.754-.92-.188-.385-.291-.854-.291-1.407 0-.686.171-1.255.514-1.69.342-.436.77-.77 1.284-1.022a6.179 6.179 0 011.662-.52c.6-.1 1.147-.15 1.644-.183.171-.017.326-.017.497-.017h.445v-.368c0-.52-.137-.888-.428-1.122-.291-.218-.754-.335-1.387-.335-.6 0-1.13.1-1.593.285-.463.184-.925.401-1.37.653a2.729 2.729 0 01-.463-.77c-.12-.285-.171-.486-.171-.62 0-.184.102-.368.325-.552.223-.185.514-.335.89-.486.377-.15.806-.251 1.303-.352.48-.083.993-.133 1.541-.133.754 0 1.387.066 1.901.217.514.15.943.385 1.268.687.325.318.565.703.702 1.172.137.468.206 1.02.206 1.64l.017 3.868zm-2.672-2.36h-.291c-.103 0-.189 0-.292.016-.342.033-.685.067-1.027.117a2.84 2.84 0 00-.908.285c-.257.134-.48.318-.651.535-.171.218-.257.503-.257.838 0 .385.103.703.325.97.223.269.6.402 1.131.402.257 0 .514-.033.754-.1s.445-.15.633-.268c.189-.117.326-.234.429-.351.102-.134.154-.252.154-.352v-2.093zm7.861-4.02c.223-.251.565-.52 1.045-.787.48-.268 1.062-.402 1.781-.402.514 0 1.01.084 1.473.251.463.168.874.452 1.233.82.36.386.651.888.857 1.508.223.619.325 1.39.325 2.31 0 1.055-.12 1.942-.377 2.629-.256.686-.565 1.239-.959 1.624a3.44 3.44 0 01-1.319.854 4.44 4.44 0 01-1.456.25c-.394 0-.753-.05-1.044-.133a3.49 3.49 0 01-.754-.302c-.206-.1-.36-.217-.48-.318a1.71 1.71 0 01-.205-.217V22.2h-2.844V8.204c.069-.017.155-.034.257-.034.086-.017.189-.017.291-.033.12 0 .24-.017.395-.017.462 0 .856.067 1.181.218.309.15.514.401.6.753zm3.768 3.767c0-.402-.034-.787-.103-1.139a2.957 2.957 0 00-.342-.92 1.719 1.719 0 00-.651-.603c-.274-.15-.6-.218-.993-.218-.583 0-.994.117-1.217.318-.222.218-.342.453-.342.72v4.337c.103.117.308.234.6.385.29.15.616.217.993.217.702 0 1.216-.268 1.559-.82.325-.536.496-1.29.496-2.277zm5.139 3.516a3.453 3.453 0 01-.189-.854c-.034-.301-.034-.603-.034-.904v-9.46c.103-.016.206-.033.309-.033.102-.017.205-.017.308-.033.103 0 .222-.017.325-.017.223 0 .446.017.668.067.223.033.428.117.6.25.188.118.325.286.445.503.103.218.171.486.171.82V8.17h2.93v2.06h-2.912v4.352c0 .955.394 1.424 1.181 1.424.189 0 .377-.034.549-.084a6.23 6.23 0 00.462-.201c.137-.067.257-.15.36-.234.103-.084.171-.151.222-.185.206.302.377.553.48.77.103.218.171.42.171.62 0 .184-.068.352-.222.519-.154.168-.36.335-.617.469-.257.15-.582.268-.96.351a5.67 5.67 0 01-1.232.134c-.857 0-1.542-.167-2.022-.485-.445-.352-.788-.77-.993-1.306zm12.727-.268c.342 0 .65-.033.924-.117a4.54 4.54 0 00.72-.268c.206-.1.394-.234.548-.352.154-.134.291-.25.411-.351.171.2.343.469.531.787.189.318.274.586.274.787 0 .3-.171.569-.514.82-.29.218-.702.402-1.25.57-.531.15-1.165.234-1.884.234a7.559 7.559 0 01-1.936-.252 4.485 4.485 0 01-1.696-.853c-.496-.402-.89-.955-1.199-1.641-.308-.687-.462-1.557-.462-2.595 0-.854.137-1.59.411-2.21.274-.62.634-1.139 1.08-1.54a4.427 4.427 0 011.54-.905 5.613 5.613 0 011.748-.284c.77 0 1.439.117 1.987.351.548.235.976.553 1.319.955.342.401.582.853.736 1.372.154.52.223 1.055.223 1.624v.285c0 .117 0 .218-.017.352 0 .117-.017.234-.017.351a.989.989 0 01-.035.268h-6.149c.052.754.291 1.373.72 1.875.41.486 1.079.737 1.986.737zm.959-4.135c0-.653-.137-1.19-.394-1.59-.257-.403-.72-.62-1.388-.62-.582 0-1.027.2-1.37.586-.343.385-.514.92-.514 1.624h3.666zm7.502-2.83c.086-.117.189-.25.326-.402.137-.15.308-.284.513-.401a4 4 0 01.669-.302c.24-.084.496-.117.787-.117.172 0 .343.017.531.033.189.034.36.084.514.151a.987.987 0 01.394.302.737.737 0 01.154.468c0 .302-.068.637-.222 1.022s-.309.72-.463.987a3.667 3.667 0 00-.702-.435 2.14 2.14 0 00-.84-.15c-.428 0-.787.117-1.079.368-.29.25-.445.536-.445.887v6.597H78.52V8.187a1.06 1.06 0 01.257-.034c.085-.016.188-.016.29-.033.104 0 .24-.017.395-.017.445 0 .84.084 1.165.251.308.184.514.436.6.787zm8.068 0a4.8 4.8 0 01.325-.402c.137-.15.309-.284.514-.401a3.99 3.99 0 01.668-.302 2.35 2.35 0 01.788-.117c.171 0 .343.017.531.033.188.034.36.084.514.151a.987.987 0 01.394.302.737.737 0 01.154.468c0 .302-.068.637-.223 1.022a7.88 7.88 0 01-.462.987 3.664 3.664 0 00-.702-.435 2.14 2.14 0 00-.84-.15c-.428 0-.788.117-1.079.368-.291.25-.445.536-.445.887v6.597h-2.843V8.187c.068-.017.154-.034.256-.034.086-.016.189-.016.292-.033.102 0 .24-.017.394-.017.445 0 .839.084 1.164.251.309.184.514.436.6.787zm13.549 6.329c0 1.071.154 1.858.479 2.344-.257.1-.479.167-.702.2-.223.034-.445.068-.685.068-.497 0-.874-.1-1.131-.285-.257-.184-.428-.469-.496-.82-.309.318-.703.586-1.217.803-.496.218-1.113.318-1.832.318-.377 0-.754-.05-1.13-.15-.378-.1-.72-.268-1.029-.503-.308-.234-.548-.535-.753-.92-.189-.385-.291-.854-.291-1.407 0-.686.17-1.255.514-1.69.342-.436.77-.77 1.284-1.022a6.178 6.178 0 011.662-.52c.6-.1 1.147-.15 1.644-.183.171-.017.326-.017.497-.017h.445v-.368c0-.52-.137-.888-.428-1.122-.291-.218-.754-.335-1.388-.335-.6 0-1.13.1-1.593.285-.462.184-.924.401-1.37.653a2.729 2.729 0 01-.462-.77c-.12-.285-.172-.486-.172-.62 0-.184.103-.368.326-.552.222-.185.514-.335.89-.486.377-.15.806-.251 1.302-.352.48-.083.994-.133 1.542-.133.754 0 1.387.066 1.901.217.514.15.942.385 1.268.687.325.318.565.703.702 1.172.137.468.206 1.02.206 1.64l.017 3.868zm-2.672-2.36h-.292c-.102 0-.188 0-.29.016-.343.033-.686.067-1.028.117a2.84 2.84 0 00-.908.285 2.01 2.01 0 00-.651.535c-.171.218-.257.503-.257.838 0 .385.103.703.325.97.223.269.6.402 1.13.402.258 0 .515-.033.754-.1.24-.067.446-.15.634-.268.189-.117.326-.234.428-.351.103-.134.155-.252.155-.352v-2.093z" fill="#044D80"/></svg></svg>